<?xml version="1.0" encoding="iso-8859-1"?>
<!-- Generator: Adobe Illustrator 19.0.0, SVG Export Plug-In . SVG Version: 6.00 Build 0)  -->
<svg version="1.1" id="Layer_1" xmlns="http://www.w3.org/2000/svg" xmlns:xlink="http://www.w3.org/1999/xlink" x="0px" y="0px"
	 viewBox="0 0 512 512" style="enable-background:new 0 0 512 512;" xml:space="preserve">
<g>
	<g>
		<path d="M485.083,54.98H26.917C12.075,54.98,0,67.055,0,81.897v102.369c0,7.19,2.801,13.95,7.884,19.033l28.769,28.768v5.606
			c0,120.948,98.399,219.347,219.347,219.347s219.347-98.399,219.347-219.347v-5.606l28.768-28.769
			c5.084-5.083,7.885-11.844,7.885-19.033V81.897C512,67.055,499.925,54.98,485.083,54.98z M494.819,174.103h-46.388
			c-4.744,0-8.591,3.846-8.591,8.591c0,4.744,3.846,8.591,8.591,8.591h43.402l-28.635,28.635H118.55
			c-4.744,0-8.591,3.846-8.591,8.591s3.846,8.591,8.591,8.591h339.615v0.573c0,111.474-90.692,202.166-202.166,202.166
			S53.834,349.147,53.834,237.673v-0.573h28.067c4.744,0,8.591-3.846,8.591-8.591s-3.846-8.591-8.591-8.591h-33.1l-28.635-28.635
			h336.631c4.744,0,8.591-3.846,8.591-8.591c0-4.744-3.846-8.591-8.591-8.591H17.181V81.897c0-5.369,4.367-9.736,9.736-9.736
			h458.166c5.369,0,9.736,4.367,9.736,9.736V174.103z"/>
	</g>
</g>
<g>
	<g>
		<path d="M411.78,174.103h-18.33c-4.744,0-8.591,3.846-8.591,8.591c0,4.744,3.846,8.591,8.591,8.591h18.33
			c4.744,0,8.591-3.846,8.591-8.591C420.37,177.949,416.524,174.103,411.78,174.103z"/>
	</g>
</g>
<g>
	<g>
		<path d="M256,265.736c-40.106,0-72.734,32.628-72.734,72.734s32.628,72.734,72.734,72.734s72.734-32.628,72.734-72.734
			S296.106,265.736,256,265.736z M256,394.022c-30.632,0-55.553-24.921-55.553-55.553c0-30.632,24.921-55.553,55.553-55.553
			s55.553,24.921,55.553,55.553C311.553,369.102,286.632,394.022,256,394.022z"/>
	</g>
</g>
<g>
	<g>
		<path d="M283.49,329.879c-4.744,0-8.591,3.846-8.591,8.591c0,10.421-8.478,18.899-18.899,18.899s-18.899-8.478-18.899-18.899
			S245.579,319.57,256,319.57c4.744,0,8.591-3.846,8.591-8.591s-3.846-8.591-8.591-8.591c-19.895,0-36.081,16.186-36.081,36.081
			c0,19.895,16.186,36.081,36.081,36.081s36.081-16.186,36.081-36.081C292.081,333.726,288.234,329.879,283.49,329.879z"/>
	</g>
</g>
<g>
</g>
<g>
</g>
<g>
</g>
<g>
</g>
<g>
</g>
<g>
</g>
<g>
</g>
<g>
</g>
<g>
</g>
<g>
</g>
<g>
</g>
<g>
</g>
<g>
</g>
<g>
</g>
<g>
</g>
</svg>
